<?xml version="1.0" encoding="UTF-8"?>
<svg width="74px" height="74px" viewBox="0 0 74 74" version="1.1" xmlns="http://www.w3.org/2000/svg" xmlns:xlink="http://www.w3.org/1999/xlink">
    <!-- Generator: Sketch 49.3 (51167) - http://www.bohemiancoding.com/sketch -->
    <title>React</title>
    <desc>Created with Sketch.</desc>
    <defs>
        <linearGradient x1="94.893743%" y1="100%" x2="10.1069014%" y2="6.02534227%" id="linearGradient-1">
            <stop stop-color="#7AA3FB" offset="0%"></stop>
            <stop stop-color="#2CDAFC" offset="100%"></stop>
        </linearGradient>
        <rect id="path-2" x="0.939825628" y="0.960365609" width="72.9880329" height="72.7380739" rx="6"></rect>
        <linearGradient x1="72.6090103%" y1="-6.47823891%" x2="76.0442778%" y2="50%" id="linearGradient-4">
            <stop stop-color="#B5F1FF" offset="0%"></stop>
            <stop stop-color="#69AEFB" offset="100%"></stop>
        </linearGradient>
    </defs>
    <g id="For-other-screens" stroke="none" stroke-width="1" fill="none" fill-rule="evenodd">
        <g id="Framework-Artboard" transform="translate(-63.000000, -290.000000)">
            <g id="React" transform="translate(63.000000, 290.000000)">
                <mask id="mask-3" fill="white">
                    <use xlink:href="#path-2"></use>
                </mask>
                <g id="Mask">
                    <use fill="#FFFFFF" xlink:href="#path-2"></use>
                    <use fill="url(#linearGradient-1)" xlink:href="#path-2"></use>
                </g>
                <path d="M138.549117,81.4442338 C141.954337,69.0976272 139.365522,63.4713561 130.782669,64.5654203 C117.908391,66.2065167 97.1685745,35.9408864 80.9865087,28.1043065 C64.8044429,20.2677266 34.131239,34.7178073 12.4464266,32.9525944 C-2.01011502,31.7757858 -18.1589239,26.7915877 -36,18 L-29.9600257,98 L69.8952545,98 L138.549117,92.3389071 L138.549117,81.4442338 Z" id="Path-6" fill="url(#linearGradient-4)" opacity="0.400000006" mask="url(#mask-3)"></path>
                <path d="M137.736897,83.8498294 C141.138137,74.7381866 138.552347,70.5860681 129.979526,71.393474 C117.120294,72.6045828 96.4047171,50.2689222 80.241564,44.4856232 C64.0784108,38.7023242 33.4410559,49.3663049 11.7815875,48.0635997 C-2.65805816,47.1951295 -18.7879932,43.516853 -36.6082177,37.0287701 L-30.5753026,96.06778 L69.1632725,96.06778 L137.736897,91.8899635 L137.736897,83.8498294 Z" id="Path-6" fill="url(#linearGradient-4)" opacity="0.300000012" mask="url(#mask-3)"></path>
                <path d="M114.614482,97.2276078 L114.614482,105.267742 L50.5693052,109.445558 L-42.5827603,109.445558 L-48.2172754,50.4065485 C-31.5738582,56.8946314 -16.5091075,60.5729079 -3.02302334,61.4413781 C17.2061029,62.7440834 45.8202362,52.0801027 60.9160113,57.8634017 C76.0117864,63.6467006 95.3593539,85.9823612 107.369391,84.7712524 C115.376082,83.9638466 117.791113,88.115965 114.614482,97.2276078 Z" id="Path-6" fill="url(#linearGradient-4)" opacity="0.200000003" mask="url(#mask-3)"></path>
                <g id="react" mask="url(#mask-3)" fill-rule="nonzero">
                    <g transform="translate(22.000000, 23.000000)" id="Shape">
                        <path d="M0.09425,13.9695652 C0.09425,16.3087826 2.439625,18.4924174 6.137125,19.7233217 C5.39875,23.3434783 6.004875,26.2614435 8.029125,27.3983652 C10.10975,28.5670609 13.2095,27.7581043 16.151625,25.2533217 C19.0195,27.6569391 21.917875,28.6028522 23.940375,27.4626435 C26.019125,26.2906609 26.65125,23.1748696 25.8925,19.4416174 C29.74375,18.2015826 31.898,16.3395826 31.898,13.9695652 C31.898,11.6846435 29.548375,9.70796522 25.900625,8.48497391 C26.7175,4.59747826 26.025375,1.75036522 23.91725,0.566452174 C21.884875,-0.574973913 18.95275,0.419878261 16.04275,2.88631304 C13.01525,0.268434783 10.112125,-0.530782609 8.00625,0.656417391 C5.97575,1.80113043 5.396375,4.77217391 6.137125,8.45928696 C2.564375,9.67241739 0.09425,11.6938957 0.09425,13.9695652 Z" fill="#FFFFFF"></path>
                        <path d="M25.128125,9.69944348 C24.8274961,9.59901204 24.5243165,9.50597382 24.218875,9.42041739 C24.2695282,9.21996243 24.3163695,9.01861204 24.359375,8.81646957 C25.047625,5.56262609 24.597625,2.94133913 23.060875,2.07845217 C21.5875,1.25086957 19.17775,2.11375652 16.744,4.17638261 C16.5041854,4.38009394 16.2696939,4.58967386 16.04075,4.80492174 C15.8874325,4.66179465 15.7314057,4.52144594 15.57275,4.38394783 C13.022125,2.17827826 10.4655,1.24892174 8.930375,2.11436522 C7.458375,2.94426087 7.022375,5.40862609 7.642,8.49227826 C7.70364836,8.79764979 7.77325416,9.10144638 7.85075,9.40337391 C7.489,9.50344348 7.139625,9.61008696 6.805375,9.72354783 C3.815125,10.7388522 1.905375,12.3302261 1.905375,13.9807652 C1.905375,15.6856 3.955375,17.3955478 7.070125,18.4322783 C7.32268523,18.5159533 7.57734764,18.5934846 7.833875,18.6648 C7.75053774,18.9900797 7.67655052,19.317564 7.612,19.6468696 C7.02125,22.6769565 7.482625,25.082887 8.95075,25.9076696 C10.467125,26.7592348 13.012125,25.8839304 15.490375,23.7741913 C15.68625,23.6074087 15.882875,23.4305217 16.07975,23.245113 C16.3277277,23.478129 16.5823266,23.7043676 16.84325,23.9235652 C19.24375,25.9353043 21.6145,26.7476696 23.081375,25.9206957 C24.596375,25.0665739 25.088625,22.4819304 24.449375,19.337287 C24.400625,19.0970957 24.34375,18.8517913 24.28,18.6019826 C24.45875,18.5506087 24.634125,18.4975304 24.80525,18.4422609 C28.04325,17.3974957 30.149875,15.7083652 30.149875,13.9807652 C30.149875,12.3242609 28.178625,10.7221739 25.128125,9.69944348 Z" fill="#53C1DE"></path>
                        <path d="M24.42575,17.326887 C24.271375,17.3766783 24.112875,17.4247652 23.951375,17.4713913 C23.593875,16.369287 23.111375,15.1973043 22.521125,13.9866087 C23.0845,12.8045217 23.54825,11.6476348 23.89575,10.5525913 C24.184625,10.6341565 24.465125,10.7199826 24.735375,10.8106783 C27.349125,11.6868348 28.943375,12.9825043 28.943375,13.9807652 C28.943375,15.0441565 27.2215,16.4246783 24.425875,17.326887 L24.42575,17.326887 Z M23.26575,19.5655478 C23.548375,20.9560522 23.58875,22.2132522 23.4015,23.1960522 C23.23325,24.0791478 22.895,24.6678783 22.47675,24.903687 C21.586625,25.4054957 19.683,24.7532174 17.63025,23.0328 C17.394875,22.8355826 17.15775,22.6249739 16.92,22.4021913 C17.715875,21.5544 18.51125,20.5688 19.2875,19.4743652 C20.653,19.3564 21.943,19.1634435 23.112875,18.9001217 C23.170375,19.1265565 23.221625,19.348487 23.26575,19.5655478 Z M11.5345,24.8170087 C10.664875,25.1161217 9.97225,25.1246435 9.553625,24.8895652 C8.662625,24.3892174 8.292375,22.4572174 8.7975,19.866 C8.8575675,19.5597726 8.92634394,19.2552265 9.00375,18.952713 C10.160625,19.201913 11.44125,19.3812348 12.81,19.4893391 C13.591375,20.5602783 14.40975,21.5446609 15.2345,22.4066957 C15.0592187,22.5718303 14.8797893,22.7327371 14.696375,22.8892696 C13.6005,23.8222783 12.502375,24.4840522 11.534625,24.8170087 L11.5345,24.8170087 Z M7.460375,17.320313 C6.083125,16.8618435 4.94575,16.2660522 4.166125,15.6159652 C3.465625,15.0316174 3.111875,14.4515304 3.111875,13.9807652 C3.111875,12.9792174 4.64525,11.7015652 7.202625,10.8332 C7.5236124,10.7246838 7.84779292,10.6253427 8.17475,10.5353043 C8.52825,11.6549391 8.991875,12.8255826 9.551375,14.0093739 C8.984625,15.2108174 8.514375,16.400087 8.157625,17.5328696 C7.92345517,17.4675921 7.69096829,17.3967185 7.460375,17.320313 Z M8.826125,8.26657391 C8.29525,5.62446957 8.64775,3.63147826 9.534875,3.13137391 C10.479875,2.59864348 12.56925,3.35829565 14.7715,5.26266087 C14.91225,5.3844 15.053625,5.51186087 15.19525,5.64370435 C14.37475,6.50184348 13.563875,7.4788 12.78925,8.54353043 C11.460875,8.66344348 10.18925,8.85603478 9.02025,9.114 C8.94824043,8.83311735 8.88351154,8.55051167 8.826125,8.26645217 L8.826125,8.26657391 Z M21.0095,11.1964696 C20.7333846,10.7319654 20.4470265,10.2733083 20.150625,9.82081739 C21.051875,9.9316 21.91525,10.0789043 22.726,10.2592 C22.482625,11.0189739 22.17925,11.8134435 21.822,12.6278783 C21.5609771,12.1455222 21.2900898,11.6682909 21.0095,11.1964696 Z M16.041125,6.48346087 C16.597625,7.0706087 17.155,7.72629565 17.70325,8.43761739 C16.5911263,8.38643585 15.4771472,8.3861921 14.365,8.43688696 C14.91375,7.73213913 15.475875,7.07742609 16.041125,6.48346087 Z M11.040875,11.2045043 C10.7637983,11.6725733 10.4979759,12.1468763 10.243625,12.6270261 C9.89225,11.8153913 9.591625,11.0173913 9.346125,10.2467826 C10.152,10.071113 11.011375,9.92758261 11.90675,9.81862609 C11.6070267,10.2739212 11.3183221,10.736008 11.040875,11.2045043 Z M11.9325,18.2267826 C11.0075,18.1262261 10.135125,17.99 9.3295,17.8192 C9.578875,17.0349565 9.886125,16.2197913 10.245,15.3907478 C10.5004232,15.8712535 10.7674136,16.3458426 11.04575,16.8141217 C11.3297639,17.2918051 11.6254313,17.7628259 11.9325,18.2267826 Z M16.0745,21.5610957 C15.502625,20.9600696 14.93225,20.2953739 14.375125,19.5804 C14.915875,19.6010957 15.46725,19.6115652 16.027625,19.6115652 C16.603375,19.6115652 17.1725,19.5990261 17.732625,19.5746783 C17.182625,20.3026783 16.62725,20.9683478 16.0745,21.5610957 Z M21.8335,15.3485043 C22.211,16.1865565 22.52925,16.9973391 22.782,17.768313 C21.963,17.950313 21.078875,18.096887 20.14725,18.2057217 C20.4457939,17.7447826 20.7348928,17.2781047 21.014375,16.8059652 C21.2984857,16.3261238 21.571595,15.8401832 21.8335,15.3485043 Z M19.969125,16.2189391 C19.541275,16.9427947 19.0893695,17.652909 18.614125,18.3481565 C17.776125,18.4064696 16.910125,18.4365391 16.027625,18.4365391 C15.14875,18.4365391 14.29375,18.4098783 13.470375,18.3578957 C12.9828045,17.6642669 12.5223503,16.9529236 12.09,16.2253913 C11.6596705,15.5017191 11.2577142,14.7623921 10.885,14.0090087 C11.2567662,13.2553996 11.6575079,12.5156766 12.086375,11.7914087 L12.086375,11.7916522 C12.5151076,11.06723 12.9719368,10.3589282 13.455875,9.66827826 C14.295875,9.60643478 15.157125,9.57405217 16.02775,9.57405217 C16.90225,9.57405217 17.764625,9.60667826 18.604375,9.6690087 C19.0834182,10.3585959 19.5373257,11.0644322 19.96525,11.7852 C20.3955919,12.5078565 20.8016816,13.243956 21.182875,13.9923304 C20.8056028,14.7483297 20.4008046,15.4910033 19.96925,16.2189391 L19.969125,16.2189391 Z M22.45825,3.09643478 C23.404,3.62770435 23.771875,5.76994783 23.177625,8.57932174 C23.1386751,8.76233547 23.0963348,8.94464925 23.050625,9.12617391 C21.878875,8.86285217 20.606375,8.66685217 19.274125,8.54511304 C18.498,7.46881739 17.693875,6.49015652 16.886625,5.64309565 C17.0981579,5.44448409 17.3147247,5.25102151 17.536125,5.06288696 C19.621375,3.29547826 21.57025,2.59766957 22.45825,3.09643478 Z" fill="#FFFFFF"></path>
                        <path d="M16.027625,11.5244348 C17.420625,11.5244348 18.54975,12.6242261 18.54975,13.9807652 C18.54975,15.3374261 17.420625,16.4372174 16.027625,16.4372174 C14.63475,16.4372174 13.5055,15.3374261 13.5055,13.9807652 C13.5055,12.6242261 14.63475,11.5244348 16.027625,11.5244348" fill="#53C1DE"></path>
                    </g>
                </g>
            </g>
        </g>
    </g>
</svg>